<svg version="1.0" xmlns="http://www.w3.org/2000/svg"
 width="588.000000pt" height="641.000000pt" viewBox="0 0 588.000000 641.000000"
 preserveAspectRatio="xMidYMid meet">
  <g transform="translate(0.000000,641.000000) scale(0.100000,-0.100000)"
  fill="#000000" stroke="none">
  <path d="M307 6092 l-307 -307 2 -2580 1 -2580 309 -305 308 -305 0 3193 c0
  1755 -1 3192 -3 3192 -1 0 -140 -138 -310 -308z"/>
  <path d="M680 3205 l0 -3200 1955 1955 1955 1955 0 427 c0 236 -3 428 -8 428
  -4 0 -261 -254 -572 -565 l-565 -565 -1382 1382 -1383 1383 0 -3200z m1478
  852 l852 -852 -855 -855 -855 -855 0 1708 c0 939 1 1707 3 1707 1 0 386 -384
  855 -853z"/>
  <path d="M1360 4340 l0 -435 350 -350 350 -350 -350 -350 -350 -350 2 -433 3
  -432 783 782 782 783 -785 785 -785 785 0 -435z"/>
  <path d="M4137 5282 c-614 -614 -1117 -1122 -1117 -1127 0 -6 96 -106 213
  -223 l212 -212 595 595 c327 327 598 595 602 595 5 0 8 -964 8 -2142 l1 -2143
  304 -310 305 -310 0 3198 c0 1758 -1 3197 -3 3197 -1 0 -505 -503 -1120 -1118z"/>
  <path d="M5320 3205 l0 -3200 280 280 280 280 0 2640 0 2640 -280 280 -280
  280 0 -3200z"/>
  </g>
</svg>
